name Walk6.mot
datacolumns 19
datarows 27
range 2.42500000 2.55500000
endheader

                time	   L_ground_force_vx	   L_ground_force_vy	   L_ground_force_vz	   L_ground_force_px	   L_ground_force_py	   L_ground_force_pz	   R_ground_force_vx	   R_ground_force_vy	   R_ground_force_vz	   R_ground_force_px	   R_ground_force_py	   R_ground_force_pz	   L_ground_torque_x	   L_ground_torque_y	   L_ground_torque_z	   R_ground_torque_x	   R_ground_torque_y	   R_ground_torque_z	
          2.42500000	         -0.89073402	          1.08449810	          0.06430672	          0.05783661	          0.00000000	          0.02596963	          0.00000000	         -0.00000000	         -0.00000000	          0.00000000	          0.00000000	         -0.00000000	          0.00000000	          0.03600644	          0.00000000	          0.00000000	          0.00000000	          0.00000000	
          2.43000000	          0.08134384	         -0.93635950	         -0.02103128	         -0.01959684	          0.00000000	         -0.00814008	          0.00000000	         -0.00000000	          0.00000000	          0.00000000	          0.00000000	         -0.00000000	          0.00000000	         -0.00961232	          0.00000000	          0.00000000	          0.00000000	          0.00000000	
          2.43500000	          0.11956157	         -0.38135100	         -0.01290029	         -0.01179428	          0.00000000	         -0.00511020	          0.00000000	          0.00000000	          0.00000000	         -0.00000000	          0.00000000	          0.00000000	          0.00000000	         -0.00661389	          0.00000000	          0.00000000	          0.00000000	          0.00000000	
          2.44000000	          0.02484046	         -0.00577757	         -0.00135043	         -0.00119464	          0.00000000	         -0.00055568	         -0.00000000	          0.00000000	          0.00000000	         -0.00000000	          0.00000000	          0.00000000	          0.00000000	         -0.00081934	          0.00000000	          0.00000000	         -0.00000000	          0.00000000	
          2.44500000	         -0.00597914	          0.03975454	          0.00101958	          0.00094343	          0.00000000	          0.00039805	         -0.00000000	          0.00000000	         -0.00000000	         -0.00000000	          0.00000000	          0.00000000	          0.00000000	          0.00048697	          0.00000000	          0.00000000	         -0.00000000	          0.00000000	
          2.45000000	         -0.00437917	          0.01182141	          0.00043364	          0.00039529	          0.00000000	          0.00017238	         -0.00000000	         -0.00000000	         -0.00000000	          0.00000000	          0.00000000	         -0.00000000	          0.00000000	          0.00022604	          0.00000000	          0.00000000	         -0.00000000	          0.00000000	
          2.45500000	         -0.00058432	         -0.00098509	          0.00001147	          0.00000894	          0.00000000	          0.00000535	          0.00000000	         -0.00000000	         -0.00000000	          0.00000000	          0.00000000	         -0.00000000	          0.00000000	          0.00001081	          0.00000000	          0.00000000	          0.00000000	          0.00000000	
          2.46000000	          0.00031066	         -0.00156016	         -0.00004383	         -0.00004038	          0.00000000	         -0.00001720	          0.00000000	         -0.00000000	          0.00000000	          0.00000000	          0.00000000	         -0.00000000	          0.00000000	         -0.00002148	          0.00000000	          0.00000000	          0.00000000	          0.00000000	
          2.46500000	          0.00015088	         -0.00033243	         -0.00001359	         -0.00001234	          0.00000000	         -0.00000542	          0.00000000	          0.00000000	          0.00000000	         -0.00000000	          0.00000000	          0.00000000	          0.00000000	         -0.00000722	          0.00000000	          0.00000000	          0.00000000	          0.00000000	
          2.47000000	          0.00000878	          0.00007569	          0.00000093	          0.00000091	          0.00000000	          0.00000034	         -0.00000000	          0.00000000	          0.00000000	         -0.00000000	          0.00000000	          0.00000000	          0.00000000	          0.00000030	          0.00000000	          0.00000000	         -0.00000000	          0.00000000	
          2.47500000	         -0.00001390	          0.00005739	          0.00000174	          0.00000159	          0.00000000	          0.00000068	         -0.00000000	         -0.00000000	         -0.00000000	         -0.00000000	          0.00000000	          0.00000000	          0.00000000	          0.00000087	          0.00000000	          0.00000000	         -0.00000000	          0.00000000	
          2.48000000	         -0.00000487	          0.00000795	          0.00000039	          0.00000035	          0.00000000	          0.00000016	          0.00000000	         -0.00000000	         -0.00000000	          0.00000000	          0.00000000	         -0.00000000	          0.00000000	          0.00000021	          0.00000000	          0.00000000	          0.00000000	          0.00000000	
          2.48500000	          0.00000014	         -0.00000399	         -0.00000008	         -0.00000007	          0.00000000	         -0.00000003	          0.00000000	         -0.00000000	          0.00000000	          0.00000000	          0.00000000	         -0.00000000	          0.00000000	         -0.00000003	          0.00000000	          0.00000000	          0.00000000	          0.00000000	
          2.49000000	          0.00000057	         -0.00000199	         -0.00000006	         -0.00000006	          0.00000000	         -0.00000003	          0.00000000	          0.00000000	          0.00000000	         -0.00000000	          0.00000000	          0.00000000	          0.00000000	         -0.00000003	          0.00000000	          0.00000000	          0.00000000	          0.00000000	
          2.49500000	          0.00000014	         -0.00000013	         -0.00000001	         -0.00000001	          0.00000000	         -0.00000000	         -0.00000000	          0.00000000	          0.00000000	         -0.00000000	          0.00000000	          0.00000000	          0.00000000	         -0.00000001	          0.00000000	          0.00000000	         -0.00000000	          0.00000000	
          2.50000000	         -0.00000002	          0.00000018	          0.00000000	          0.00000000	          0.00000000	          0.00000000	         -0.00000000	          0.00000000	         -0.00000000	         -0.00000000	          0.00000000	          0.00000000	          0.00000000	          0.00000000	          0.00000000	          0.00000000	         -0.00000000	          0.00000000	
          2.50500000	         -0.00000002	          0.00000006	          0.00000000	          0.00000000	          0.00000000	          0.00000000	         -0.00000000	         -0.00000000	         -0.00000000	          0.00000000	          0.00000000	         -0.00000000	          0.00000000	          0.00000000	          0.00000000	          0.00000000	         -0.00000000	          0.00000000	
          2.51000000	         -0.00000000	         -0.00000000	          0.00000000	          0.00000000	          0.00000000	          0.00000000	          0.00000000	         -0.00000000	         -0.00000000	          0.00000000	          0.00000000	         -0.00000000	          0.00000000	          0.00000000	          0.00000000	          0.00000000	          0.00000000	          0.00000000	
          2.51500000	          0.00000000	         -0.00000001	         -0.00000000	         -0.00000000	          0.00000000	         -0.00000000	          0.00000000	         -0.00000000	          0.00000000	          0.00000000	          0.00000000	         -0.00000000	          0.00000000	         -0.00000000	          0.00000000	          0.00000000	          0.00000000	          0.00000000	
          2.52000000	          0.00000000	         -0.00000000	         -0.00000000	         -0.00000000	          0.00000000	         -0.00000000	          0.00000000	          0.00000000	          0.00000000	         -0.00000000	          0.00000000	          0.00000000	          0.00000000	         -0.00000000	          0.00000000	          0.00000000	          0.00000000	          0.00000000	
          2.52500000	          0.00000000	          0.00000000	          0.00000000	          0.00000000	          0.00000000	          0.00000000	         -0.00000000	          0.00000000	          0.00000000	         -0.00000000	          0.00000000	          0.00000000	          0.00000000	         -0.00000000	          0.00000000	          0.00000000	         -0.00000000	          0.00000000	
          2.53000000	         -0.00000000	          0.00000000	          0.00000000	          0.00000000	          0.00000000	          0.00000000	         -0.00000000	          0.00000000	         -0.00000000	         -0.00000000	          0.00000000	          0.00000000	          0.00000000	          0.00000000	          0.00000000	          0.00000000	         -0.00000000	          0.00000000	
          2.53500000	         -0.00000000	          0.00000000	          0.00000000	          0.00000000	          0.00000000	          0.00000000	         -0.00000000	         -0.00000000	         -0.00000000	          0.00000000	          0.00000000	         -0.00000000	          0.00000000	          0.00000000	          0.00000000	          0.00000000	         -0.00000000	          0.00000000	
          2.54000000	         -0.00000000	         -0.00000000	         -0.00000000	         -0.00000000	          0.00000000	         -0.00000000	          0.00000000	         -0.00000000	          0.00000000	          0.00000000	          0.00000000	         -0.00000000	          0.00000000	         -0.00000000	          0.00000000	          0.00000000	          0.00000000	          0.00000000	
          2.54500000	          0.00000000	         -0.00000000	         -0.00000000	         -0.00000000	          0.00000000	         -0.00000000	          0.00000000	          0.00000000	          0.00000000	         -0.00000000	          0.00000000	         -0.00000000	          0.00000000	         -0.00000000	          0.00000000	          0.00000000	          0.00000000	          0.00000000	
          2.55000000	          0.00000000	         -0.00000000	         -0.00000000	         -0.00000000	          0.00000000	         -0.00000000	         -0.00000000	          0.00000000	          0.00000000	         -0.00000000	          0.00000000	          0.00000000	          0.00000000	         -0.00000000	          0.00000000	          0.00000000	         -0.00000000	          0.00000000	
          2.55500000	         -0.00000000	          0.00000000	          0.00000000	          0.00000000	          0.00000000	          0.00000000	         -0.00000000	          0.00000000	         -0.00000000	         -0.00000000	          0.00000000	          0.00000000	          0.00000000	          0.00000000	          0.00000000	          0.00000000	         -0.00000000	          0.00000000	
